<?xml version="1.0" encoding="utf-8"?>
<!-- Generator: Adobe Illustrator 21.0.0, SVG Export Plug-In . SVG Version: 6.00 Build 0)  -->
<svg version="1.1" id="Layer_1" xmlns="http://www.w3.org/2000/svg" xmlns:xlink="http://www.w3.org/1999/xlink" x="0px" y="0px"
	 viewBox="0 0 136 60" style="enable-background:new 0 0 136 60;" xml:space="preserve">
<style type="text/css">
	.st0{fill:#98C93C;}
</style>
<title>Ringoo-Logo</title>
<desc>Created with Sketch.</desc>
<g id="icons">
	<g id="ringoo_x2F_top_x5F_01" transform="translate(-153.000000, -45.000000)">
		<g id="Header-2" transform="translate(0.000000, 25.000000)">
			<g id="Background">
				<g id="Ringoo-Logo" transform="translate(153.000000, 20.000000)">
					<path id="Shape" class="st0" d="M20,2.6C20,3.9,21.2,5,22.5,5C23.9,5,25,3.9,25,2.5C25,1.1,23.9,0,22.5,0
						c-0.7,0-1.3,0.3-1.8,0.7S20,1.9,20,2.6"/>
					<rect id="Rectangle-path" x="20" y="7" class="st0" width="5" height="24"/>
					<path id="Shape_1_" class="st0" d="M136,18c0.1,3.4-1.2,6.7-3.5,9.1c-2.3,2.4-5.5,3.8-8.9,3.9c-3.4,0-6.6-1.4-9-3.9
						s-3.7-5.7-3.6-9.1c-0.1-3.4,1.2-6.7,3.6-9.1s5.6-3.8,9-3.9c3.4,0,6.6,1.4,8.9,3.9S136.1,14.6,136,18 M131.3,18
						c0.2-2.2-0.5-4.4-2-6s-3.6-2.5-5.8-2.5c-2.2,0-4.4,0.9-5.9,2.5c-1.5,1.6-2.3,3.8-2.1,6.1c-0.2,2.2,0.6,4.4,2.1,6
						c1.5,1.6,3.6,2.5,5.9,2.5c2.2,0,4.3-0.9,5.8-2.5C130.8,22.4,131.5,20.2,131.3,18"/>
					<path id="Shape_2_" class="st0" d="M109,18.5c0,6.9-5.6,12.5-12.5,12.5S84,25.4,84,18.5S89.6,6,96.5,6S109,11.6,109,18.5
						 M104.3,18.5c0.2-2.9-1.2-5.8-3.7-7.3s-5.7-1.5-8.2,0s-4,4.4-3.7,7.3c-0.2,2.9,1.2,5.8,3.7,7.3c2.5,1.5,5.7,1.5,8.2,0
						C103.1,24.3,104.5,21.4,104.3,18.5"/>
					<path id="Shape_3_" class="st0" d="M32.5,8.7L32.5,8.7c-2.2,2.4-3.5,5.6-3.5,8.9V31h4.7V17.6c0-4.2,3.2-7.5,7.2-7.5
						s7.2,3.4,7.2,7.5V31H53V17.6c0-3.3-1.2-6.5-3.5-8.9C47.3,6.3,44.2,5,41,5S34.7,6.3,32.5,8.7"/>
					<path id="Shape_4_" class="st0" d="M82,6H67.8c-5.6,0.1-10.6,3.9-12.2,9.3c-1.6,5.5,0.4,11.4,5,14.6l5.4,4
						c-6.1,0.9-10.6,6.1-10.9,12.3c-0.3,6.2,3.7,11.8,9.7,13.3c5.9,1.5,12.1-1.4,14.8-6.9c2.7-5.6,1.1-12.3-3.7-16.1l0,0l0,0
						l-5.4-4.3c4.5-0.8,8.3-4,9.9-8.4s0.9-9.2-1.9-12.9h2L82,6z M67.8,55.6c-2.2,0-4.4-0.9-5.9-2.5c-1.5-1.6-2.3-3.9-2.2-6.1
						c0-4.5,3.6-8.2,8.1-8.2c4.5,0,8.1,3.7,8.1,8.2c0.2,2.3-0.6,4.5-2.2,6.1C72.2,54.7,70,55.6,67.8,55.6L67.8,55.6z M67.8,27.8
						c-2.2,0-4.4-0.9-5.9-2.5s-2.3-3.9-2.1-6.1c0-4.5,3.6-8.2,8.1-8.2c4.5,0,8.1,3.7,8.1,8.2c0.2,2.2-0.6,4.4-2.1,6.1
						c-1.5,1.6-3.6,2.6-5.9,2.5H67.8z"/>
					<path id="Shape_5_" class="st0" d="M12.6,5C9.4,4.9,6.4,6.1,4.1,8.3V6.7H0V31h4.7V15.6c0-6.2,8.3-6.6,10.9-5.5L17,5.8
						C15.6,5.2,14.1,5,12.6,5z"/>
				</g>
			</g>
		</g>
	</g>
</g>
</svg>
