<svg xmlns="http://www.w3.org/2000/svg" width="29.3" height="29.3" viewBox="0 0 19 19">
  <g fill="none" fill-rule="evenodd">
    <circle cx="9.5" cy="9.5" r="8.925" stroke="#98C93C" stroke-width="1.15"/>
    <path fill="#98C93C" fill-rule="nonzero" d="M10.8019691,11.129308 C10.6956886,11.1381326 10.5982649,11.0851848 10.5008411,11.032237 C9.60631388,10.5115834 8.84463722,9.77031381 8.3132349,8.88785005 C8.21581114,8.73783121 8.12724409,8.56133846 8.16267091,8.3848457 C8.22466785,8.04950948 8.6497897,7.91713991 8.77378358,7.59945296 C8.88892075,7.32588919 8.73835676,7.01702688 8.56122265,6.77876166 C8.26895137,6.38165297 7.89696975,6.0374921 7.47184789,5.78157761 C7.26814367,5.65803268 7.04672604,5.55213703 6.80759499,5.53448776 C5.73593365,5.48153993 5.67393671,7.26411673 5.815644,7.9612631 C5.96620799,8.68488338 6.32933291,9.35555584 6.75445476,9.96445584 C7.75526246,11.4116964 9.12805179,12.638321 10.7931124,13.2207471 C11.3776549,13.4237138 12.006481,13.5472587 12.608737,13.4060645 C12.909865,13.3354674 13.1932795,13.2030978 13.4058405,12.9736573 C13.6184014,12.7530413 13.7335386,12.4353544 13.6803983,12.1353167 C13.6272581,11.8264544 13.4146972,11.5793645 13.2021362,11.3587486 C12.8921516,11.0410616 12.54674,10.7586732 12.1747584,10.5115834 C12.1039048,10.4674602 12.0330511,10.423337 11.9533408,10.4145124 C11.8647737,10.4056877 11.7850634,10.4498109 11.705353,10.4939341 C11.4839354,10.617479 11.2802312,10.7674979 11.1030971,10.935166 C11.0233867,11.0145877 10.9348197,11.0940095 10.8285392,11.1116587 C10.8196825,11.1204834 10.8108258,11.129308 10.8019691,11.129308 Z"/>
  </g>
</svg>
